<?xml version="1.0" encoding="UTF-8" standalone="yes" ?>
<svg xmlns="http://www.w3.org/2000/svg" height="452" width="452">
  <script type="text/ecmascript">
    <![CDATA[
      var shown = 1;
      function click() {
        var seq = document.getElementById("seq");
        if (shown==1) {
          seq.setAttribute("style", "visibility: hidden");
          shown = 0;
        } else {
          seq.setAttribute("style", "visibility: visible");
          shown = 1;
        }
      }
    ]]>
  </script>
  <style type="text/css">
    <![CDATA[
      .nucleotide {
        font-family: SansSerif;
      }
      .backbone {
        stroke: grey;
        fill:   none;
        stroke-width: 1.5;
      }
      .basepairs {
        stroke: red;
        fill:   none;
        stroke-width: 2.5;
      }
    ]]>
  </style>

  <rect style="stroke: white; fill: white" height="452" x="0" y="0" width="452" onclick="click(evt)" />
  <g transform="scale(1.163259,1.163259) translate(145.178589,53.747375)">
    <polyline class="backbone" id="outline" points="
      118.925,64.220
      114.387,78.518
      109.850,92.815
      104.586,106.861
      98.610,120.619
      92.634,134.377
      86.658,148.135
      74.257,156.575
      59.266,157.087
      44.275,157.599
      29.284,158.112
      12.168,147.733
      -3.961,158.168
      -18.952,157.656
      -33.944,157.144
      -48.935,156.632
      -63.926,156.120
      -78.917,155.608
      -93.909,155.096
      -108.900,154.584
      -122.520,145.450
      -137.119,152.920
      -137.679,169.309
      -123.623,177.758
      -109.412,169.575
      -94.421,170.087
      -79.429,170.599
      -64.438,171.111
      -49.447,171.623
      -34.456,172.135
      -19.464,172.648
      -4.473,173.160
      1.988,181.405
      12.168,184.691
      22.657,181.657
      29.796,173.103
      44.787,172.591
      59.778,172.079
      74.769,171.566
      77.247,190.171
      90.419,200.930
      88.885,215.852
      78.843,228.816
      85.299,243.891
      101.612,245.568
      111.000,232.122
      103.806,217.386
      105.340,202.464
      108.361,201.474
      111.207,200.060
      113.821,198.252
      126.637,206.045
      134.408,219.827
      149.303,219.829
      162.119,227.622
      174.936,235.416
      187.752,243.210
      200.568,251.004
      205.748,266.187
      220.897,271.469
      234.394,262.796
      235.885,246.822
      224.227,235.801
      208.362,238.187
      195.546,230.394
      182.729,222.600
      169.913,214.806
      157.097,207.012
      150.243,193.789
      134.431,193.229
      121.615,185.435
      119.086,165.697
      100.416,154.111
      106.392,140.353
      112.368,126.595
      118.344,112.837
      122.901,109.495
      125.326,105.129
      125.600,100.785
      124.147,97.353
      128.685,83.055
      133.222,68.758
      148.240,65.541
      159.627,55.233
      164.319,40.609
      161.055,25.601
      150.712,14.247
      136.072,9.600
      121.075,12.912
      109.753,23.290
      105.153,37.944
    " />
    <g id="pairs">
      <line class="basepairs" id="1,82" x1="118.92506" y1="64.22049" x2="133.22223" y2="68.75821" />
      <line class="basepairs" id="2,81" x1="114.38734" y1="78.51767" x2="128.68451" y2="83.05539" />
      <line class="basepairs" id="3,80" x1="109.84962" y1="92.81483" x2="124.14679" y2="97.35255" />
      <line class="basepairs" id="4,76" x1="104.58585" y1="106.86093" x2="118.34402" y2="112.83694" />
      <line class="basepairs" id="5,75" x1="98.60983" y1="120.61909" x2="112.36800" y2="126.59512" />
      <line class="basepairs" id="6,74" x1="92.63381" y1="134.37727" x2="106.39198" y2="140.35329" />
      <line class="basepairs" id="7,73" x1="86.65780" y1="148.13544" x2="100.41596" y2="154.11145" />
      <line class="basepairs" id="8,39" x1="74.25735" y1="156.57516" x2="74.76946" y2="171.56642" />
      <line class="basepairs" id="9,38" x1="59.26609" y1="157.08728" x2="59.77821" y2="172.07854" />
      <line class="basepairs" id="10,37" x1="44.27484" y1="157.59940" x2="44.78695" y2="172.59065" />
      <line class="basepairs" id="11,36" x1="29.28358" y1="158.11151" x2="29.79570" y2="173.10277" />
      <line class="basepairs" id="13,32" x1="-3.96104" y1="158.16837" x2="-4.47315" y2="173.15962" />
      <line class="basepairs" id="14,31" x1="-18.95229" y1="157.65625" x2="-19.46441" y2="172.64751" />
      <line class="basepairs" id="15,30" x1="-33.94355" y1="157.14413" x2="-34.45567" y2="172.13539" />
      <line class="basepairs" id="16,29" x1="-48.93480" y1="156.63202" x2="-49.44692" y2="171.62328" />
      <line class="basepairs" id="17,28" x1="-63.92606" y1="156.11990" x2="-64.43817" y2="171.11116" />
      <line class="basepairs" id="18,27" x1="-78.91731" y1="155.60779" x2="-79.42943" y2="170.59904" />
      <line class="basepairs" id="19,26" x1="-93.90857" y1="155.09567" x2="-94.42068" y2="170.08691" />
      <line class="basepairs" id="20,25" x1="-108.89983" y1="154.58356" x2="-109.41194" y2="169.57480" />
      <line class="basepairs" id="41,48" x1="90.41867" y1="200.93019" x2="105.34003" y2="202.46416" />
      <line class="basepairs" id="42,47" x1="88.88470" y1="215.85156" x2="103.80607" y2="217.38551" />
      <line class="basepairs" id="51,71" x1="113.82121" y1="198.25165" x2="121.61496" y2="185.43536" />
      <line class="basepairs" id="52,70" x1="126.63750" y1="206.04541" x2="134.43126" y2="193.22913" />
      <line class="basepairs" id="54,68" x1="149.30305" y1="219.82864" x2="157.09682" y2="207.01236" />
      <line class="basepairs" id="55,67" x1="162.11935" y1="227.62241" x2="169.91310" y2="214.80612" />
      <line class="basepairs" id="56,66" x1="174.93564" y1="235.41617" x2="182.72940" y2="222.59988" />
      <line class="basepairs" id="57,65" x1="187.75194" y1="243.20993" x2="195.54568" y2="230.39365" />
      <line class="basepairs" id="58,64" x1="200.56822" y1="251.00369" x2="208.36198" y2="238.18739" />
    </g>
    <g transform="translate(-4.6, 4)" id="seq">
      <text class="nucleotide" x="118.925" y="64.220">G</text>
      <text class="nucleotide" x="114.387" y="78.518">C</text>
      <text class="nucleotide" x="109.850" y="92.815">T</text>
      <text class="nucleotide" x="104.586" y="106.861">A</text>
      <text class="nucleotide" x="98.610" y="120.619">A</text>
      <text class="nucleotide" x="92.634" y="134.377">C</text>
      <text class="nucleotide" x="86.658" y="148.135">T</text>
      <text class="nucleotide" x="74.257" y="156.575">A</text>
      <text class="nucleotide" x="59.266" y="157.087">G</text>
      <text class="nucleotide" x="44.275" y="157.599">C</text>
      <text class="nucleotide" x="29.284" y="158.112">T</text>
      <text class="nucleotide" x="12.168" y="147.733">A</text>
      <text class="nucleotide" x="-3.961" y="158.168">C</text>
      <text class="nucleotide" x="-18.952" y="157.656">G</text>
      <text class="nucleotide" x="-33.944" y="157.144">T</text>
      <text class="nucleotide" x="-48.935" y="156.632">G</text>
      <text class="nucleotide" x="-63.926" y="156.120">G</text>
      <text class="nucleotide" x="-78.917" y="155.608">A</text>
      <text class="nucleotide" x="-93.909" y="155.096">G</text>
      <text class="nucleotide" x="-108.900" y="154.584">G</text>
      <text class="nucleotide" x="-122.520" y="145.450">C</text>
      <text class="nucleotide" x="-137.119" y="152.920">A</text>
      <text class="nucleotide" x="-137.679" y="169.309">T</text>
      <text class="nucleotide" x="-123.623" y="177.758">C</text>
      <text class="nucleotide" x="-109.412" y="169.575">C</text>
      <text class="nucleotide" x="-94.421" y="170.087">C</text>
      <text class="nucleotide" x="-79.429" y="170.599">T</text>
      <text class="nucleotide" x="-64.438" y="171.111">T</text>
      <text class="nucleotide" x="-49.447" y="171.623">C</text>
      <text class="nucleotide" x="-34.456" y="172.135">A</text>
      <text class="nucleotide" x="-19.464" y="172.648">C</text>
      <text class="nucleotide" x="-4.473" y="173.160">G</text>
      <text class="nucleotide" x="1.988" y="181.405">G</text>
      <text class="nucleotide" x="12.168" y="184.691">C</text>
      <text class="nucleotide" x="22.657" y="181.657">C</text>
      <text class="nucleotide" x="29.796" y="173.103">G</text>
      <text class="nucleotide" x="44.787" y="172.591">G</text>
      <text class="nucleotide" x="59.778" y="172.079">C</text>
      <text class="nucleotide" x="74.769" y="171.566">T</text>
      <text class="nucleotide" x="77.247" y="190.171">T</text>
      <text class="nucleotide" x="90.419" y="200.930">C</text>
      <text class="nucleotide" x="88.885" y="215.852">T</text>
      <text class="nucleotide" x="78.843" y="228.816">T</text>
      <text class="nucleotide" x="85.299" y="243.891">A</text>
      <text class="nucleotide" x="101.612" y="245.568">G</text>
      <text class="nucleotide" x="111.000" y="232.122">A</text>
      <text class="nucleotide" x="103.806" y="217.386">G</text>
      <text class="nucleotide" x="105.340" y="202.464">G</text>
      <text class="nucleotide" x="108.361" y="201.474">G</text>
      <text class="nucleotide" x="111.207" y="200.060">A</text>
      <text class="nucleotide" x="113.821" y="198.252">C</text>
      <text class="nucleotide" x="126.637" y="206.045">T</text>
      <text class="nucleotide" x="134.408" y="219.827">A</text>
      <text class="nucleotide" x="149.303" y="219.829">T</text>
      <text class="nucleotide" x="162.119" y="227.622">G</text>
      <text class="nucleotide" x="174.936" y="235.416">G</text>
      <text class="nucleotide" x="187.752" y="243.210">C</text>
      <text class="nucleotide" x="200.568" y="251.004">C</text>
      <text class="nucleotide" x="205.748" y="266.187">G</text>
      <text class="nucleotide" x="220.897" y="271.469">T</text>
      <text class="nucleotide" x="234.394" y="262.796">T</text>
      <text class="nucleotide" x="235.885" y="246.822">T</text>
      <text class="nucleotide" x="224.227" y="235.801">A</text>
      <text class="nucleotide" x="208.362" y="238.187">G</text>
      <text class="nucleotide" x="195.546" y="230.394">G</text>
      <text class="nucleotide" x="182.729" y="222.600">C</text>
      <text class="nucleotide" x="169.913" y="214.806">C</text>
      <text class="nucleotide" x="157.097" y="207.012">A</text>
      <text class="nucleotide" x="150.243" y="193.789">A</text>
      <text class="nucleotide" x="134.431" y="193.229">G</text>
      <text class="nucleotide" x="121.615" y="185.435">G</text>
      <text class="nucleotide" x="119.086" y="165.697">A</text>
      <text class="nucleotide" x="100.416" y="154.111">A</text>
      <text class="nucleotide" x="106.392" y="140.353">G</text>
      <text class="nucleotide" x="112.368" y="126.595">T</text>
      <text class="nucleotide" x="118.344" y="112.837">T</text>
      <text class="nucleotide" x="122.901" y="109.495">T</text>
      <text class="nucleotide" x="125.326" y="105.129">G</text>
      <text class="nucleotide" x="125.600" y="100.785">A</text>
      <text class="nucleotide" x="124.147" y="97.353">G</text>
      <text class="nucleotide" x="128.685" y="83.055">G</text>
      <text class="nucleotide" x="133.222" y="68.758">C</text>
      <text class="nucleotide" x="148.240" y="65.541">A</text>
      <text class="nucleotide" x="159.627" y="55.233">A</text>
      <text class="nucleotide" x="164.319" y="40.609">T</text>
      <text class="nucleotide" x="161.055" y="25.601">A</text>
      <text class="nucleotide" x="150.712" y="14.247">A</text>
      <text class="nucleotide" x="136.072" y="9.600">C</text>
      <text class="nucleotide" x="121.075" y="12.912">A</text>
      <text class="nucleotide" x="109.753" y="23.290">G</text>
      <text class="nucleotide" x="105.153" y="37.944">G</text>
    </g>
  </g>
</svg>
